# xmcd CD database file
#
# Track frame offsets:
#	150
#	18176
#	40376
#	66756
#	96676
#	129456
#	153076
#	174426
#	197225
#	222226
#	240201
#	262526
#	283976
#	306226
#
# Disc length: 4385 seconds
#
# Revision: 3
# Processed by: cddbd v1.5PL3 Copyright (c) Steve Scherf et al.
# Submitted via: CDex 1.51
#
DISCID=bf111f0e
DTITLE=TM Network - GIFT FOR FUNKS
DYEAR=1987
DGENRE=JPop
TTITLE0=Get Wild
TTITLE1=Come on Let's Dance (This is the FANKS DYNA-MIX)
TTITLE2=Passenger
TTITLE3=Your Song ("D" Mix)
TTITLE4=Dragon the Festival (Zoo mix)
TTITLE5=1/2の助走
TTITLE6=愛をそのままに
TTITLE7=Confession 〜告白〜
TTITLE8=Rainbow Rainbow(陽気なアインシュタインと80年代モナリザの一夜)
TTITLE9=1974 (16光年の訪問者)
TTITLE10=8月の長い夜
TTITLE11=Nervous
TTITLE12=You can Dance
TTITLE13=Self Control (方舟に曳かれて)
EXTD=YEAR: 1987
EXTT0=
EXTT1=
EXTT2=
EXTT3=
EXTT4=
EXTT5=
EXTT6=
EXTT7=
EXTT8=
EXTT9=
EXTT10=
EXTT11=
EXTT12=
EXTT13=
PLAYORDER=
